<svg xmlns="http://www.w3.org/2000/svg" xmlns:xlink="http://www.w3.org/1999/xlink" width="438" zoomAndPan="magnify" viewBox="0 0 328.5 251.999989" height="336" preserveAspectRatio="xMidYMid meet" version="1.0"><defs><clipPath id="9187a36b76"><path d="M 0.539062 71.472656 L 300.085938 71.472656 L 300.085938 251.199219 L 0.539062 251.199219 Z M 0.539062 71.472656 " clip-rule="nonzero"/></clipPath><clipPath id="e0fed9147c"><path d="M 112.558594 135 L 240 135 L 240 222.707031 L 112.558594 222.707031 Z M 112.558594 135 " clip-rule="nonzero"/></clipPath><clipPath id="7f91a2113b"><path d="M 273 0.292969 L 327 0.292969 L 327 30 L 273 30 Z M 273 0.292969 " clip-rule="nonzero"/></clipPath></defs><g clip-path="url(#9187a36b76)"><path fill="#4ee1a0" d="M 7.511719 74.054688 C 9.949219 72.441406 12.871094 71.5 16.011719 71.5 L 284.613281 71.5 C 288.136719 71.5 291.378906 72.683594 293.976562 74.667969 L 150.398438 152.59375 Z M 298.183594 243.136719 C 299.363281 240.960938 300.03125 238.464844 300.03125 235.816406 L 300.03125 88.804688 L 211.457031 136.03125 Z M 0.59375 87.75 L 0.59375 235.816406 C 0.59375 237.179688 0.769531 238.5 1.101562 239.757812 L 89.339844 136.039062 Z M 197.644531 143.777344 L 154.171875 168.15625 C 153 168.8125 151.699219 169.140625 150.398438 169.140625 C 149.101562 169.140625 147.800781 168.8125 146.632812 168.15625 L 103.152344 143.78125 L 12.027344 250.710938 C 13.296875 251.050781 14.632812 251.234375 16.011719 251.234375 L 284.613281 251.234375 C 284.714844 251.234375 284.8125 251.230469 284.910156 251.226562 Z M 197.644531 143.777344 " fill-opacity="1" fill-rule="nonzero"/></g><g clip-path="url(#e0fed9147c)"><path fill="#ffffff" d="M 112.992188 220.382812 C 112.898438 220.152344 112.898438 219.921875 112.992188 219.691406 C 113.074219 219.460938 113.222656 219.289062 113.441406 219.175781 C 113.65625 219.0625 113.882812 219.035156 114.121094 219.09375 C 116.28125 219.816406 118.488281 220.351562 120.742188 220.695312 C 121 220.730469 121.207031 220.851562 121.359375 221.0625 C 121.515625 221.269531 121.574219 221.5 121.53125 221.757812 C 121.515625 221.886719 121.472656 222.007812 121.402344 222.121094 C 121.335938 222.230469 121.25 222.324219 121.140625 222.398438 C 121.035156 222.472656 120.917969 222.523438 120.789062 222.550781 C 120.660156 222.574219 120.53125 222.574219 120.402344 222.546875 C 118.046875 222.183594 115.738281 221.628906 113.476562 220.878906 C 113.25 220.777344 113.085938 220.613281 112.992188 220.382812 Z M 126.722656 222.511719 C 126.660156 222.390625 126.632812 222.265625 126.632812 222.128906 C 126.632812 221.871094 126.722656 221.648438 126.90625 221.464844 C 127.085938 221.277344 127.308594 221.183594 127.566406 221.183594 C 129.835938 221.164062 132.09375 220.984375 134.335938 220.640625 C 134.464844 220.613281 134.589844 220.609375 134.71875 220.636719 C 134.847656 220.660156 134.964844 220.710938 135.070312 220.785156 C 135.175781 220.859375 135.265625 220.949219 135.332031 221.058594 C 135.402344 221.171875 135.445312 221.289062 135.464844 221.417969 C 135.503906 221.675781 135.449219 221.90625 135.292969 222.113281 C 135.136719 222.324219 134.933594 222.445312 134.675781 222.480469 C 132.328125 222.847656 129.964844 223.039062 127.589844 223.054688 C 127.40625 223.058594 127.230469 223.011719 127.074219 222.914062 C 126.917969 222.816406 126.796875 222.683594 126.722656 222.511719 Z M 140.496094 220.449219 C 140.472656 220.40625 140.453125 220.359375 140.441406 220.3125 C 140.378906 220.070312 140.410156 219.839844 140.535156 219.621094 C 140.660156 219.402344 140.839844 219.257812 141.082031 219.183594 C 143.285156 218.550781 145.449219 217.796875 147.570312 216.929688 C 147.808594 216.832031 148.046875 216.832031 148.285156 216.929688 C 148.519531 217.03125 148.6875 217.199219 148.789062 217.4375 C 148.886719 217.675781 148.890625 217.914062 148.789062 218.152344 C 148.691406 218.390625 148.519531 218.558594 148.28125 218.65625 C 146.097656 219.566406 143.875 220.347656 141.601562 221 C 141.375 221.0625 141.15625 221.042969 140.941406 220.9375 C 140.730469 220.832031 140.582031 220.667969 140.496094 220.449219 Z M 153.335938 215.136719 C 153.230469 214.910156 153.21875 214.679688 153.296875 214.445312 C 153.375 214.210938 153.523438 214.035156 153.742188 213.917969 C 155.726562 212.84375 157.722656 211.660156 159.675781 210.375 C 159.890625 210.234375 160.125 210.191406 160.378906 210.242188 C 160.628906 210.296875 160.828125 210.429688 160.96875 210.648438 C 161.109375 210.863281 161.152344 211.097656 161.101562 211.351562 C 161.050781 211.601562 160.917969 211.800781 160.699219 211.941406 C 158.75 213.285156 156.71875 214.46875 154.675781 215.542969 C 154.445312 215.660156 154.210938 215.679688 153.960938 215.605469 C 153.714844 215.53125 153.527344 215.382812 153.402344 215.15625 C 153.386719 215.132812 153.363281 215.125 153.335938 215.136719 Z M 165.011719 207.488281 C 164.921875 207.289062 164.902344 207.085938 164.953125 206.875 C 165.003906 206.667969 165.113281 206.492188 165.28125 206.359375 C 167.074219 204.960938 168.855469 203.460938 170.5625 201.902344 C 170.742188 201.71875 170.960938 201.625 171.21875 201.625 C 171.480469 201.625 171.699219 201.71875 171.878906 201.902344 C 172.0625 202.085938 172.152344 202.304688 172.152344 202.5625 C 172.152344 202.820312 172.0625 203.039062 171.878906 203.222656 C 170.132812 204.8125 168.328125 206.347656 166.488281 207.734375 C 166.285156 207.890625 166.054688 207.957031 165.800781 207.925781 C 165.546875 207.894531 165.339844 207.777344 165.179688 207.578125 C 165.136719 207.550781 165.09375 207.519531 165.054688 207.488281 Z M 175.308594 198.078125 C 175.234375 197.902344 175.210938 197.722656 175.238281 197.535156 C 175.269531 197.34375 175.351562 197.179688 175.480469 197.039062 C 177.070312 195.359375 178.59375 193.65625 179.992188 191.828125 C 180.152344 191.628906 180.359375 191.515625 180.617188 191.484375 C 180.871094 191.457031 181.097656 191.523438 181.300781 191.679688 C 181.507812 191.832031 181.636719 192.03125 181.683594 192.28125 C 181.726562 192.535156 181.679688 192.765625 181.539062 192.980469 C 180.082031 194.785156 178.515625 196.578125 176.902344 198.292969 C 176.71875 198.476562 176.5 198.570312 176.242188 198.570312 C 175.980469 198.570312 175.761719 198.476562 175.582031 198.292969 C 175.496094 198.230469 175.417969 198.160156 175.355469 198.078125 Z M 184.054688 187.203125 C 183.902344 186.878906 183.929688 186.570312 184.132812 186.277344 C 185.441406 184.335938 186.648438 182.363281 187.71875 180.410156 C 187.839844 180.179688 188.023438 180.027344 188.269531 179.949219 C 188.519531 179.871094 188.757812 179.890625 188.988281 180.011719 C 189.21875 180.132812 189.375 180.316406 189.453125 180.5625 C 189.53125 180.808594 189.507812 181.050781 189.390625 181.28125 L 189.390625 181.347656 C 188.261719 183.3125 187.066406 185.339844 185.722656 187.328125 C 185.625 187.464844 185.503906 187.566406 185.351562 187.640625 C 185.199219 187.710938 185.042969 187.738281 184.875 187.726562 C 184.707031 187.714844 184.554688 187.660156 184.417969 187.566406 C 184.277344 187.472656 184.171875 187.351562 184.097656 187.203125 Z M 190.96875 174.242188 C 192.097656 171.984375 193.132812 170.019531 194.230469 168.035156 C 194.363281 167.828125 194.546875 167.695312 194.785156 167.636719 C 195.027344 167.574219 195.253906 167.605469 195.46875 167.722656 C 195.683594 167.84375 195.828125 168.019531 195.90625 168.253906 C 195.980469 168.488281 195.96875 168.714844 195.863281 168.9375 C 194.738281 170.902344 193.765625 172.898438 192.683594 175.007812 L 191.804688 174.667969 Z M 197.851562 162.960938 C 197.699219 162.636719 197.726562 162.328125 197.929688 162.035156 C 199.292969 160.070312 200.800781 158.222656 202.441406 156.484375 C 202.621094 156.296875 202.835938 156.199219 203.097656 156.191406 C 203.355469 156.183594 203.578125 156.265625 203.765625 156.445312 C 203.957031 156.621094 204.054688 156.839844 204.0625 157.097656 C 204.070312 157.359375 203.984375 157.582031 203.804688 157.769531 C 202.25 159.441406 200.820312 161.214844 199.519531 163.09375 C 199.375 163.308594 199.175781 163.4375 198.921875 163.484375 C 198.667969 163.53125 198.433594 163.480469 198.222656 163.332031 C 198.074219 163.230469 197.964844 163.101562 197.894531 162.9375 Z M 207.371094 152.804688 C 207.277344 152.609375 207.253906 152.40625 207.304688 152.195312 C 207.351562 151.984375 207.460938 151.8125 207.632812 151.679688 C 209.425781 150.234375 211.34375 148.824219 213.273438 147.480469 C 213.488281 147.339844 213.722656 147.292969 213.972656 147.34375 C 214.226562 147.394531 214.425781 147.527344 214.570312 147.742188 C 214.714844 147.953125 214.765625 148.1875 214.71875 148.441406 C 214.667969 148.695312 214.535156 148.894531 214.320312 149.039062 C 212.378906 150.347656 210.519531 151.722656 208.757812 153.132812 C 208.558594 153.292969 208.328125 153.359375 208.074219 153.328125 C 207.820312 153.300781 207.613281 153.1875 207.449219 152.988281 C 207.429688 152.925781 207.417969 152.859375 207.417969 152.792969 Z M 218.933594 144.988281 C 218.832031 144.769531 218.816406 144.542969 218.890625 144.308594 C 218.964844 144.078125 219.109375 143.902344 219.320312 143.78125 C 221.316406 142.652344 223.425781 141.523438 225.566406 140.519531 C 225.800781 140.410156 226.039062 140.394531 226.28125 140.480469 C 226.523438 140.566406 226.699219 140.726562 226.808594 140.960938 C 226.914062 141.195312 226.921875 141.433594 226.835938 141.671875 C 226.746094 141.914062 226.589844 142.089844 226.359375 142.203125 C 224.257812 143.207031 222.195312 144.277344 220.230469 145.394531 C 220.007812 145.523438 219.769531 145.554688 219.519531 145.488281 C 219.269531 145.417969 219.082031 145.269531 218.957031 145.042969 Z M 231.511719 138.953125 C 231.417969 138.714844 231.417969 138.472656 231.519531 138.234375 C 231.621094 138 231.792969 137.832031 232.03125 137.734375 C 234.1875 136.867188 236.410156 136.054688 238.644531 135.308594 C 238.765625 135.257812 238.890625 135.230469 239.019531 135.234375 C 239.152344 135.234375 239.277344 135.261719 239.398438 135.316406 C 239.515625 135.367188 239.621094 135.445312 239.707031 135.542969 C 239.796875 135.640625 239.859375 135.75 239.902344 135.875 C 239.941406 136 239.957031 136.125 239.945312 136.257812 C 239.933594 136.386719 239.894531 136.511719 239.832031 136.625 C 239.765625 136.738281 239.683594 136.835938 239.578125 136.914062 C 239.472656 136.996094 239.355469 137.050781 239.230469 137.082031 C 237.03125 137.8125 234.839844 138.613281 232.730469 139.472656 C 232.496094 139.554688 232.265625 139.542969 232.039062 139.441406 C 231.8125 139.335938 231.652344 139.171875 231.558594 138.941406 Z M 231.511719 138.953125 " fill-opacity="1" fill-rule="nonzero"/></g><path fill="#ffffff" d="M 250.046875 150.109375 C 249.136719 148.066406 248.210938 145.890625 247.308594 143.644531 C 247.210938 143.40625 247.210938 143.167969 247.3125 142.929688 C 247.414062 142.691406 247.585938 142.523438 247.824219 142.425781 C 248.066406 142.328125 248.304688 142.332031 248.542969 142.433594 C 248.78125 142.535156 248.949219 142.707031 249.042969 142.945312 C 249.9375 145.203125 250.847656 147.324219 251.753906 149.34375 C 251.859375 149.578125 251.867188 149.816406 251.777344 150.058594 C 251.6875 150.300781 251.523438 150.476562 251.289062 150.582031 C 251.054688 150.691406 250.816406 150.699219 250.574219 150.609375 C 250.332031 150.519531 250.15625 150.355469 250.046875 150.121094 Z M 253.0625 156.417969 C 252.953125 156.1875 252.941406 155.957031 253.023438 155.71875 C 253.101562 155.480469 253.253906 155.300781 253.476562 155.1875 C 253.710938 155.070312 253.949219 155.054688 254.195312 155.136719 C 254.441406 155.21875 254.625 155.375 254.742188 155.605469 C 255.871094 157.746094 256.996094 159.800781 258.046875 161.683594 C 258.117188 161.792969 258.160156 161.910156 258.183594 162.035156 C 258.207031 162.160156 258.203125 162.285156 258.171875 162.410156 C 258.140625 162.535156 258.089844 162.648438 258.015625 162.75 C 257.9375 162.851562 257.84375 162.9375 257.734375 163 C 257.625 163.066406 257.507812 163.105469 257.378906 163.121094 C 257.253906 163.136719 257.128906 163.128906 257.003906 163.09375 C 256.882812 163.058594 256.773438 163 256.671875 162.921875 C 256.574219 162.839844 256.492188 162.746094 256.433594 162.632812 C 255.304688 160.714844 254.175781 158.628906 253.050781 156.449219 Z M 244.824219 137.160156 L 244.824219 137.089844 C 244.011719 134.835938 243.257812 132.636719 242.570312 130.433594 C 242.492188 130.1875 242.511719 129.949219 242.632812 129.71875 C 242.753906 129.492188 242.9375 129.335938 243.183594 129.257812 C 243.433594 129.179688 243.671875 129.203125 243.898438 129.320312 C 244.128906 129.441406 244.285156 129.625 244.363281 129.871094 C 245.039062 132.046875 245.785156 134.261719 246.617188 136.449219 C 246.707031 136.691406 246.695312 136.929688 246.585938 137.164062 C 246.472656 137.394531 246.296875 137.554688 246.054688 137.644531 C 245.941406 137.695312 245.820312 137.722656 245.695312 137.722656 C 245.570312 137.726562 245.449219 137.703125 245.335938 137.65625 C 245.21875 137.609375 245.117188 137.542969 245.027344 137.453125 C 244.941406 137.363281 244.871094 137.261719 244.824219 137.148438 Z M 260.15625 168.441406 C 260.0625 168.222656 260.054688 168.003906 260.128906 167.777344 C 260.207031 167.550781 260.347656 167.382812 260.550781 167.261719 C 260.757812 167.144531 260.976562 167.109375 261.210938 167.160156 C 261.441406 167.207031 261.628906 167.328125 261.769531 167.515625 C 263.085938 169.398438 264.5 171.203125 266.011719 172.933594 C 266.167969 173.125 266.234375 173.347656 266.210938 173.597656 C 266.191406 173.84375 266.085938 174.050781 265.898438 174.214844 C 265.714844 174.378906 265.496094 174.457031 265.246094 174.449219 C 265 174.441406 264.789062 174.351562 264.613281 174.171875 C 263.050781 172.390625 261.59375 170.53125 260.234375 168.589844 C 260.234375 168.589844 260.179688 168.488281 260.15625 168.429688 Z M 240.675781 123.824219 C 240.667969 123.769531 240.667969 123.710938 240.675781 123.65625 C 240.074219 121.398438 239.546875 119.0625 239.09375 116.796875 C 239.042969 116.542969 239.09375 116.308594 239.234375 116.09375 C 239.378906 115.878906 239.578125 115.746094 239.832031 115.695312 C 240.085938 115.648438 240.320312 115.695312 240.535156 115.839844 C 240.75 115.980469 240.882812 116.179688 240.933594 116.433594 C 241.375 118.691406 241.902344 120.949219 242.480469 123.203125 C 242.53125 123.433594 242.503906 123.65625 242.390625 123.863281 C 242.277344 124.070312 242.109375 124.214844 241.882812 124.296875 C 241.660156 124.375 241.441406 124.371094 241.21875 124.285156 C 241 124.195312 240.835938 124.046875 240.730469 123.835938 Z M 269.53125 178.785156 C 269.367188 178.433594 269.40625 178.105469 269.65625 177.804688 C 269.816406 177.601562 270.027344 177.488281 270.285156 177.457031 C 270.542969 177.429688 270.773438 177.496094 270.976562 177.660156 C 272.703125 179.089844 274.582031 180.28125 276.617188 181.234375 C 276.851562 181.339844 277.019531 181.515625 277.109375 181.757812 C 277.203125 182 277.195312 182.238281 277.089844 182.476562 C 276.980469 182.710938 276.808594 182.875 276.566406 182.964844 C 276.324219 183.058594 276.085938 183.054688 275.847656 182.949219 C 273.652344 181.929688 271.617188 180.648438 269.746094 179.113281 C 269.648438 179.019531 269.578125 178.910156 269.53125 178.785156 Z M 237.945312 110.128906 C 237.914062 110.039062 237.886719 109.949219 237.863281 109.859375 C 237.550781 107.5 237.300781 105.144531 237.144531 102.851562 C 237.125 102.597656 237.195312 102.371094 237.363281 102.175781 C 237.53125 101.976562 237.742188 101.871094 238 101.847656 C 238.257812 101.832031 238.484375 101.910156 238.679688 102.078125 C 238.875 102.246094 238.984375 102.460938 239.003906 102.71875 C 239.164062 104.972656 239.398438 107.230469 239.726562 109.597656 C 239.765625 109.832031 239.722656 110.050781 239.597656 110.25 C 239.472656 110.453125 239.296875 110.589844 239.070312 110.65625 C 238.84375 110.722656 238.621094 110.707031 238.40625 110.605469 C 238.191406 110.507812 238.039062 110.347656 237.945312 110.128906 Z M 251.628906 132.410156 C 251.625 132.351562 251.625 132.296875 251.628906 132.242188 C 251.570312 131.992188 251.609375 131.753906 251.742188 131.535156 C 251.875 131.316406 252.066406 131.175781 252.316406 131.113281 C 254.378906 130.605469 256.828125 130.121094 259.242188 129.734375 C 259.5 129.695312 259.730469 129.75 259.941406 129.902344 C 260.148438 130.054688 260.273438 130.257812 260.316406 130.515625 C 260.355469 130.769531 260.300781 131.003906 260.148438 131.210938 C 259.996094 131.421875 259.792969 131.546875 259.535156 131.585938 C 257.121094 131.96875 254.785156 132.433594 252.765625 132.929688 C 252.539062 133 252.316406 132.988281 252.097656 132.886719 C 251.878906 132.789062 251.722656 132.628906 251.628906 132.410156 Z M 236.960938 96.207031 C 236.902344 96.078125 236.871094 95.945312 236.871094 95.800781 C 236.871094 93.421875 236.984375 91.050781 237.175781 88.75 C 237.214844 88.507812 237.332031 88.3125 237.523438 88.160156 C 237.71875 88.007812 237.9375 87.941406 238.179688 87.960938 C 238.425781 87.984375 238.632812 88.085938 238.796875 88.265625 C 238.960938 88.449219 239.042969 88.664062 239.039062 88.910156 C 238.847656 91.164062 238.757812 93.476562 238.746094 95.8125 C 238.746094 96.070312 238.652344 96.292969 238.46875 96.476562 C 238.289062 96.65625 238.066406 96.75 237.808594 96.75 C 237.425781 96.734375 237.152344 96.554688 236.984375 96.207031 Z M 282.085938 184.203125 C 282.015625 184.054688 281.984375 183.902344 281.996094 183.738281 C 282.019531 183.484375 282.125 183.269531 282.324219 183.105469 C 282.519531 182.9375 282.746094 182.863281 283 182.882812 C 284.589844 182.992188 286.164062 182.894531 287.726562 182.589844 C 288.335938 182.46875 288.929688 182.308594 289.511719 182.105469 C 289.746094 182.035156 289.972656 182.058594 290.1875 182.167969 C 290.40625 182.277344 290.554688 182.449219 290.636719 182.679688 C 290.726562 182.921875 290.710938 183.164062 290.597656 183.394531 C 290.488281 183.628906 290.308594 183.789062 290.0625 183.875 C 289.394531 184.109375 288.714844 184.292969 288.019531 184.425781 C 286.296875 184.761719 284.5625 184.867188 282.808594 184.742188 C 282.476562 184.707031 282.234375 184.539062 282.085938 184.234375 Z M 238.269531 82.285156 C 238.183594 82.097656 238.160156 81.902344 238.203125 81.699219 C 238.710938 79.402344 239.367188 77.144531 240.167969 74.929688 C 240.261719 74.703125 240.425781 74.539062 240.652344 74.4375 C 240.878906 74.339844 241.109375 74.332031 241.34375 74.414062 C 241.578125 74.5 241.75 74.652344 241.863281 74.875 C 241.976562 75.09375 241.996094 75.324219 241.925781 75.5625 C 241.152344 77.71875 240.523438 79.914062 240.03125 82.152344 C 239.988281 82.347656 239.890625 82.511719 239.742188 82.644531 C 239.589844 82.777344 239.417969 82.851562 239.21875 82.875 C 239.019531 82.894531 238.835938 82.859375 238.660156 82.761719 C 238.484375 82.664062 238.355469 82.523438 238.269531 82.34375 Z M 265.425781 130.152344 C 265.355469 130.015625 265.324219 129.871094 265.328125 129.714844 C 265.335938 129.5625 265.375 129.417969 265.453125 129.285156 C 265.53125 129.152344 265.632812 129.046875 265.765625 128.964844 C 265.894531 128.886719 266.039062 128.84375 266.191406 128.832031 C 268.707031 128.609375 271.089844 128.507812 273.253906 128.519531 C 273.511719 128.519531 273.730469 128.609375 273.914062 128.792969 C 274.09375 128.976562 274.183594 129.195312 274.179688 129.453125 C 274.179688 129.710938 274.085938 129.933594 273.90625 130.117188 C 273.722656 130.300781 273.5 130.390625 273.242188 130.390625 C 271.132812 130.390625 268.808594 130.480469 266.351562 130.695312 C 266.15625 130.714844 265.976562 130.679688 265.808594 130.585938 C 265.640625 130.492188 265.511719 130.359375 265.425781 130.1875 Z M 242.953125 69.234375 C 242.824219 68.964844 242.824219 68.691406 242.953125 68.421875 C 244.007812 66.308594 245.171875 64.257812 246.4375 62.261719 C 246.5 62.144531 246.578125 62.046875 246.679688 61.964844 C 246.78125 61.878906 246.898438 61.820312 247.023438 61.785156 C 247.152344 61.75 247.277344 61.742188 247.410156 61.761719 C 247.539062 61.78125 247.660156 61.828125 247.769531 61.898438 C 247.882812 61.964844 247.972656 62.054688 248.046875 62.164062 C 248.121094 62.273438 248.167969 62.390625 248.191406 62.523438 C 248.214844 62.652344 248.214844 62.777344 248.183594 62.90625 C 248.152344 63.035156 248.097656 63.152344 248.019531 63.253906 C 246.765625 65.242188 245.625 67.25 244.632812 69.257812 C 244.519531 69.488281 244.335938 69.640625 244.09375 69.722656 C 243.847656 69.804688 243.613281 69.789062 243.382812 69.675781 C 243.1875 69.566406 243.042969 69.414062 242.953125 69.210938 Z M 294.847656 179.789062 C 294.75 179.601562 294.71875 179.402344 294.757812 179.191406 C 294.796875 178.984375 294.894531 178.808594 295.050781 178.664062 C 296.015625 177.753906 296.886719 176.753906 297.65625 175.671875 C 298.1875 174.929688 298.695312 174.148438 299.144531 173.417969 C 299.285156 173.21875 299.472656 173.09375 299.710938 173.042969 C 299.945312 172.992188 300.167969 173.027344 300.378906 173.148438 C 300.589844 173.269531 300.730469 173.445312 300.804688 173.675781 C 300.875 173.910156 300.859375 174.132812 300.757812 174.351562 C 300.273438 175.1875 299.742188 176 299.179688 176.800781 C 298.339844 177.988281 297.394531 179.078125 296.335938 180.074219 C 296.15625 180.257812 295.933594 180.351562 295.675781 180.351562 C 295.417969 180.351562 295.195312 180.257812 295.015625 180.074219 C 294.941406 179.984375 294.890625 179.882812 294.859375 179.769531 Z M 279.347656 130.515625 C 279.28125 130.316406 279.28125 130.117188 279.347656 129.917969 C 279.371094 129.792969 279.421875 129.679688 279.492188 129.578125 C 279.5625 129.472656 279.652344 129.386719 279.757812 129.320312 C 279.867188 129.253906 279.980469 129.210938 280.105469 129.191406 C 280.230469 129.171875 280.351562 129.175781 280.472656 129.207031 L 280.925781 129.308594 C 283.117188 129.84375 285.230469 130.59375 287.265625 131.5625 C 287.476562 131.6875 287.617188 131.867188 287.6875 132.097656 C 287.761719 132.332031 287.742188 132.558594 287.636719 132.78125 C 287.53125 133 287.363281 133.152344 287.136719 133.242188 C 286.910156 133.332031 286.679688 133.332031 286.453125 133.246094 C 284.535156 132.320312 282.542969 131.605469 280.472656 131.101562 L 280.078125 131.011719 C 279.75 130.972656 279.503906 130.808594 279.347656 130.515625 Z M 250.351562 57.410156 C 250.195312 57.066406 250.234375 56.742188 250.464844 56.441406 C 251.855469 54.625 253.375 52.796875 254.976562 51.015625 C 255.058594 50.914062 255.15625 50.832031 255.269531 50.773438 C 255.382812 50.710938 255.503906 50.675781 255.632812 50.664062 C 255.761719 50.65625 255.886719 50.667969 256.011719 50.710938 C 256.132812 50.753906 256.242188 50.816406 256.339844 50.902344 C 256.433594 50.988281 256.507812 51.089844 256.5625 51.210938 C 256.617188 51.328125 256.644531 51.449219 256.648438 51.578125 C 256.648438 51.707031 256.625 51.832031 256.578125 51.953125 C 256.527344 52.070312 256.457031 52.175781 256.367188 52.265625 C 254.796875 54.003906 253.308594 55.796875 251.945312 57.582031 C 251.785156 57.785156 251.578125 57.902344 251.324219 57.933594 C 251.070312 57.96875 250.839844 57.90625 250.636719 57.75 C 250.515625 57.660156 250.421875 57.546875 250.351562 57.410156 Z M 301.839844 167.867188 C 301.757812 167.648438 301.757812 167.429688 301.839844 167.210938 C 302.488281 165.042969 302.863281 162.828125 302.96875 160.566406 C 302.980469 160.308594 303.082031 160.09375 303.269531 159.917969 C 303.460938 159.742188 303.6875 159.660156 303.945312 159.671875 C 304.203125 159.683594 304.421875 159.78125 304.59375 159.972656 C 304.769531 160.164062 304.851562 160.386719 304.839844 160.648438 C 304.726562 163.0625 304.324219 165.425781 303.632812 167.742188 C 303.578125 167.929688 303.476562 168.085938 303.324219 168.207031 C 303.171875 168.328125 302.996094 168.394531 302.804688 168.410156 C 302.609375 168.425781 302.425781 168.382812 302.257812 168.28125 C 302.09375 168.183594 301.96875 168.042969 301.886719 167.867188 Z M 291.824219 136.574219 C 291.730469 136.375 291.710938 136.171875 291.761719 135.960938 C 291.8125 135.746094 291.921875 135.574219 292.09375 135.441406 C 292.261719 135.304688 292.457031 135.238281 292.675781 135.238281 C 292.890625 135.242188 293.085938 135.308594 293.253906 135.445312 C 295.132812 136.953125 296.8125 138.65625 298.296875 140.554688 C 298.410156 140.757812 298.441406 140.972656 298.394531 141.195312 C 298.347656 141.421875 298.230469 141.605469 298.046875 141.746094 C 297.867188 141.886719 297.660156 141.953125 297.429688 141.9375 C 297.199219 141.925781 297 141.84375 296.832031 141.683594 C 295.429688 139.902344 293.847656 138.300781 292.082031 136.878906 C 291.972656 136.796875 291.886719 136.695312 291.824219 136.574219 Z M 302.519531 154.09375 C 302.484375 154.023438 302.460938 153.953125 302.449219 153.878906 C 302.003906 151.660156 301.304688 149.523438 300.351562 147.46875 C 300.242188 147.238281 300.234375 147 300.320312 146.757812 C 300.410156 146.515625 300.570312 146.339844 300.804688 146.230469 C 300.914062 146.175781 301.03125 146.144531 301.15625 146.136719 C 301.28125 146.128906 301.402344 146.148438 301.519531 146.191406 C 301.636719 146.230469 301.742188 146.296875 301.832031 146.382812 C 301.921875 146.464844 301.992188 146.566406 302.042969 146.679688 C 303.058594 148.871094 303.8125 151.152344 304.300781 153.515625 C 304.351562 153.75 304.316406 153.972656 304.195312 154.179688 C 304.074219 154.386719 303.902344 154.527344 303.671875 154.601562 C 303.445312 154.675781 303.222656 154.664062 303.003906 154.566406 C 302.785156 154.46875 302.625 154.3125 302.527344 154.09375 Z M 259.714844 47 C 259.628906 46.820312 259.605469 46.628906 259.640625 46.433594 C 259.675781 46.234375 259.765625 46.066406 259.910156 45.925781 C 261.566406 44.324219 263.292969 42.722656 265.121094 41.179688 C 265.320312 41.015625 265.546875 40.945312 265.804688 40.964844 C 266.058594 40.988281 266.273438 41.097656 266.441406 41.289062 C 266.523438 41.382812 266.582031 41.488281 266.621094 41.605469 C 266.660156 41.722656 266.675781 41.84375 266.667969 41.964844 C 266.65625 42.089844 266.625 42.207031 266.566406 42.316406 C 266.511719 42.425781 266.433594 42.519531 266.339844 42.597656 C 264.566406 44.121094 262.839844 45.691406 261.21875 47.269531 C 261.035156 47.453125 260.816406 47.546875 260.558594 47.546875 C 260.296875 47.546875 260.078125 47.453125 259.898438 47.269531 C 259.820312 47.191406 259.761719 47.097656 259.714844 47 Z M 270.332031 37.90625 C 270.242188 37.707031 270.226562 37.503906 270.28125 37.292969 C 270.335938 37.082031 270.453125 36.910156 270.625 36.777344 C 274.089844 34.171875 276.355469 32.773438 276.445312 32.71875 C 276.667969 32.582031 276.90625 32.542969 277.15625 32.605469 C 277.410156 32.664062 277.601562 32.804688 277.738281 33.027344 C 277.875 33.25 277.910156 33.484375 277.851562 33.738281 C 277.789062 33.988281 277.648438 34.183594 277.429688 34.320312 C 277.429688 34.320312 275.171875 35.71875 271.789062 38.265625 C 271.582031 38.421875 271.351562 38.484375 271.097656 38.449219 C 270.839844 38.410156 270.636719 38.292969 270.480469 38.085938 Z M 270.332031 37.90625 " fill-opacity="1" fill-rule="nonzero"/><g clip-path="url(#7f91a2113b)"><path fill="#ffffff" d="M 300.226562 29.015625 C 300.15625 29.015625 300.09375 28.996094 300.035156 28.949219 L 287.714844 19.699219 L 288.113281 19.167969 L 300.195312 28.191406 L 325.679688 1.230469 L 274.371094 10.4375 L 283.566406 15.355469 L 283.621094 15.355469 L 283.800781 15.511719 L 283.386719 16.019531 L 283.226562 15.886719 L 273.21875 10.539062 C 273.085938 10.457031 273.027344 10.34375 273.039062 10.1875 C 273.066406 10.035156 273.160156 9.945312 273.3125 9.917969 L 326.558594 0.363281 C 326.714844 0.335938 326.832031 0.394531 326.90625 0.53125 C 326.984375 0.671875 326.964844 0.800781 326.851562 0.914062 L 300.476562 28.914062 C 300.40625 28.984375 300.324219 29.015625 300.226562 29.015625 Z M 300.226562 29.015625 " fill-opacity="1" fill-rule="nonzero"/></g><path fill="#ffffff" d="M 284.648438 29.152344 C 284.464844 29.140625 284.367188 29.042969 284.355469 28.859375 L 283.070312 15.738281 C 283.054688 15.5625 283.128906 15.445312 283.292969 15.390625 L 325.035156 1.398438 C 325.121094 1.367188 325.203125 1.367188 325.285156 1.402344 C 325.371094 1.4375 325.429688 1.496094 325.464844 1.582031 C 325.5 1.664062 325.496094 1.75 325.460938 1.832031 C 325.425781 1.917969 325.367188 1.976562 325.285156 2.007812 L 288.167969 19.664062 L 284.941406 28.925781 C 284.894531 29.070312 284.796875 29.144531 284.648438 29.152344 Z M 283.757812 15.929688 L 284.828125 27.28125 L 287.582031 19.316406 C 287.613281 19.230469 287.667969 19.171875 287.75 19.132812 L 320.039062 3.769531 Z M 283.757812 15.929688 " fill-opacity="1" fill-rule="nonzero"/><path fill="#ffffff" d="M 284.484375 28.535156 L 293.402344 23.269531 L 293.738281 23.839844 L 284.820312 29.105469 Z M 284.484375 28.535156 " fill-opacity="1" fill-rule="nonzero"/></svg>